<svg xmlns="http://www.w3.org/2000/svg" xmlns:xlink="http://www.w3.org/1999/xlink" width="256" height="170.66250610351562" viewBox="0 0 256 170.66250610351562" fill="none">
<path d="M0 0L256 0L256 170.663L0 170.663L0 0Z"   fill="#FF0000" >
</path>
<path d="M125.401 87.6608L123.987 86.2528L125.389 84.8448L126.797 86.2465L125.401 87.6608Z"   fill="#FF0000" >
</path>
<path d="M125.389 86.2526C112.141 80.9023 105.811 64.1598 111.341 50.9759C114.368 43.7504 125.543 33.8047 139.264 37.2417C133.965 39.9039 130.4 43.5647 133.85 48.7807C137.638 54.5087 135.859 63.1296 128.499 66.5791C122.777 69.2736 117.747 79.2576 125.389 86.2526Z"   fill="#FFFFFF" >
</path>
<path d="M125.177 86.5088C122.387 84.2368 117.913 81.8178 116.8 72.7298L116.627 69.8178C116.627 62.4833 120.192 58.2848 120.217 58.2593L120.678 58.2146L120.717 58.6818C120.729 58.6818 119.865 59.6608 119.001 61.5618C118.858 61.8853 118.724 62.2124 118.597 62.5431C118.471 62.8736 118.354 63.2072 118.246 63.5441C118.137 63.8809 118.038 64.2204 117.948 64.5626C117.857 64.9046 117.776 65.2488 117.703 65.5953C117.631 65.9416 117.568 66.2896 117.514 66.6393C117.46 66.9891 117.416 67.3401 117.38 67.6921C117.345 68.0442 117.319 68.397 117.302 68.7503C117.285 69.1038 117.278 69.4575 117.28 69.8113L117.453 72.6338C118.579 81.5298 122.713 83.6353 125.6 85.9841L125.651 86.4513L125.389 86.5728L125.177 86.5088ZM121.197 50.4768L123.475 52.4993L126.112 50.9568L124.889 53.7473L127.161 55.7826L124.134 55.4818L122.899 58.2721L122.253 55.3026L119.225 54.9888L121.849 53.4528L121.197 50.4768Z"   fill="#FF0000" >
</path>
<path d="M125.389 86.2527C126.426 71.9872 140.416 60.8319 154.65 62.0544C162.451 62.7137 175.347 70.2912 176.288 84.4159C172.141 80.1792 167.552 77.9072 163.648 82.8032C159.373 88.1537 150.624 89.1072 145.075 83.1807C140.749 78.5344 129.703 76.8257 125.389 86.2527Z"   fill="#FFFFFF" >
</path>
<path d="M125.088 86.1313C126.387 82.7648 127.328 77.76 135.641 73.9265L138.342 72.8578C145.331 70.6048 150.419 72.7168 150.457 72.7298L150.63 73.152L150.201 73.3248C150.189 73.3313 149.005 72.8258 146.925 72.5825C146.572 72.5452 146.219 72.5173 145.865 72.4988C145.512 72.4801 145.158 72.4709 144.803 72.471C144.449 72.4712 144.095 72.4808 143.741 72.4998C143.387 72.5186 143.034 72.5469 142.682 72.5845C142.33 72.6222 141.979 72.6691 141.629 72.7253C141.279 72.7814 140.931 72.8469 140.584 72.9215C140.238 72.9962 139.894 73.0799 139.552 73.1728C139.21 73.2658 138.871 73.3677 138.534 73.4785L135.91 74.5088C127.795 78.304 127.046 82.8993 125.696 86.3618L125.274 86.5473L125.075 86.3488L125.088 86.1313ZM158.15 71.2833L156.921 74.0608L159.2 76.1025L156.173 75.8018L154.937 78.5793L154.297 75.6033L151.251 75.3025L153.901 73.7538L153.248 70.784L155.526 72.813L158.15 71.2833Z"   fill="#FF0000" >
</path>
<path d="M125.389 86.2528C139.277 82.8608 154.189 92.7426 157.415 106.663C159.162 114.298 155.904 128.89 142.752 134.125C145.517 128.877 146.266 123.827 140.416 121.607C134.003 119.175 130.419 111.13 134.368 104.032C137.453 98.4898 135.674 87.4561 125.389 86.2528Z"   fill="#FFFFFF" >
</path>
<path d="M125.414 85.9264C129.017 86.1246 134.067 85.4784 140.262 92.2111L142.099 94.4576C146.4 100.429 145.952 105.907 145.952 105.952L145.587 106.253L145.299 105.901C145.286 105.901 145.401 104.589 144.985 102.56C144.914 102.213 144.833 101.868 144.743 101.525C144.653 101.183 144.553 100.843 144.445 100.505C144.337 100.168 144.22 99.8335 144.094 99.5021C143.968 99.171 143.834 98.8433 143.691 98.5191C143.547 98.1951 143.396 97.8751 143.235 97.5589C143.075 97.2429 142.907 96.9313 142.73 96.6241C142.553 96.317 142.369 96.0148 142.176 95.7176C141.983 95.4203 141.783 95.1283 141.574 94.8416L139.789 92.6591C133.689 86.0927 129.088 86.8096 125.376 86.5791L125.062 86.2336L125.209 85.9839L125.414 85.9264ZM149.689 112.838L146.662 112.525L145.427 115.315L144.787 112.333L141.747 112.013L144.384 110.49L143.75 107.507L146.022 109.549L148.659 108.013L147.424 110.797L149.689 112.838Z"   fill="#FF0000" >
</path>
<path d="M125.389 86.2528C132.902 98.4258 128.051 115.655 115.776 122.983C109.062 127.002 94.1632 128.378 85.152 117.466C91.0015 118.477 96.0385 117.639 96.352 111.392C96.704 104.557 103.251 98.6626 111.213 100.243C117.44 101.472 127.398 96.4033 125.389 86.2528Z"   fill="#FFFFFF" >
</path>
<path d="M125.715 86.1633C126.631 89.6578 128.787 94.2593 124.275 102.234L122.701 104.679C118.349 110.586 112.986 111.853 112.954 111.859L112.551 111.616L112.8 111.226C112.8 111.213 114.061 110.931 115.885 109.907C117.709 108.89 120.058 107.149 122.17 104.282L123.693 101.914C128.083 94.0993 125.991 89.9328 125.069 86.3298L125.319 85.9328L125.581 85.9841L125.715 86.1633ZM107.539 117.536L106.912 114.535L103.872 114.234L106.522 112.704L105.888 109.728L108.147 111.763L110.797 110.253L109.549 113.031L111.815 115.072L108.775 114.739L107.539 117.536Z"   fill="#FF0000" >
</path>
<path d="M125.389 86.2526C116.102 97.1136 98.2273 97.7919 87.4881 88.3584C81.6001 83.2064 75.7248 69.4526 83.3408 57.5296C84.1793 63.4046 86.5153 67.9424 92.5506 66.3296C99.1746 64.5566 106.79 68.9856 107.725 77.0623C108.461 83.3471 116.339 91.2639 125.389 86.2526Z"   fill="#FFFFFF" >
</path>
<path d="M125.562 86.5281C122.535 88.4608 118.81 91.9361 109.837 90.0866L107.027 89.3378C100.077 87.0081 97.2288 82.2978 97.2033 82.2721L97.2033 82.2593L97.3186 81.8113L97.7666 81.9266C97.7793 81.9266 98.4386 83.0401 99.9553 84.4608C101.491 85.8818 103.866 87.5841 107.245 88.7233L109.971 89.4338C118.759 91.2001 122.087 87.9488 125.235 85.9586L125.683 86.0738L125.709 86.3553L125.562 86.5281ZM90.1376 78.8546L92.7873 77.3378L92.1601 74.3488L94.4256 76.3968L97.0753 74.8866L95.8146 77.6641L98.0736 79.7121L95.0528 79.3793L93.7856 82.1761L93.1776 79.1808L90.1376 78.8546Z"   fill="#FF0000" >
</path>
</svg>
